<svg width="37" height="37" viewBox="0 0 37 37" fill="none" xmlns="http://www.w3.org/2000/svg">
<path d="M14.0486 18.1927C13.549 18.1927 13.0699 18.3912 12.7166 18.7444C12.3634 19.0977 12.1649 19.5768 12.1649 20.0764C12.1649 20.576 12.3634 21.0551 12.7166 21.4084C13.0699 21.7616 13.549 21.9601 14.0486 21.9601C14.296 21.9601 14.5409 21.9113 14.7695 21.8167C14.998 21.722 15.2057 21.5833 15.3806 21.4084C15.5555 21.2334 15.6942 21.0258 15.7889 20.7972C15.8836 20.5687 15.9323 20.3238 15.9323 20.0764C15.9323 19.829 15.8836 19.5841 15.7889 19.3555C15.6942 19.127 15.5555 18.9193 15.3806 18.7444C15.2057 18.5695 14.998 18.4308 14.7695 18.3361C14.5409 18.2414 14.296 18.1927 14.0486 18.1927ZM23.0903 18.1927C22.5907 18.1927 22.1116 18.3912 21.7583 18.7444C21.4051 19.0977 21.2066 19.5768 21.2066 20.0764C21.2066 20.576 21.4051 21.0551 21.7583 21.4084C22.1116 21.7616 22.5907 21.9601 23.0903 21.9601C23.5899 21.9601 24.069 21.7616 24.4222 21.4084C24.7755 21.0551 24.974 20.576 24.974 20.0764C24.974 19.5768 24.7755 19.0977 24.4222 18.7444C24.069 18.3912 23.5899 18.1927 23.0903 18.1927ZM18.5694 3.5C16.5905 3.5 14.6309 3.88978 12.8026 4.64709C10.9743 5.4044 9.31307 6.51441 7.91374 7.91374C5.08767 10.7398 3.5 14.5728 3.5 18.5694C3.5 22.5661 5.08767 26.3991 7.91374 29.2252C9.31307 30.6245 10.9743 31.7345 12.8026 32.4918C14.6309 33.2491 16.5905 33.6389 18.5694 33.6389C22.5661 33.6389 26.3991 32.0512 29.2252 29.2252C32.0512 26.3991 33.6389 22.5661 33.6389 18.5694C33.6389 16.5905 33.2491 14.6309 32.4918 12.8026C31.7345 10.9743 30.6245 9.31307 29.2252 7.91374C27.8258 6.51441 26.1646 5.4044 24.3363 4.64709C22.508 3.88978 20.5484 3.5 18.5694 3.5ZM18.5694 30.625C11.9238 30.625 6.51389 25.2151 6.51389 18.5694C6.51389 18.1324 6.51389 17.6954 6.58924 17.2735C10.1456 15.6912 12.9636 12.7828 14.4404 9.18118C17.168 13.039 21.6587 15.5556 26.7371 15.5556C27.9125 15.5556 29.0427 15.4199 30.1277 15.1637C30.4442 16.2337 30.625 17.379 30.625 18.5694C30.625 25.2151 25.2151 30.625 18.5694 30.625Z" fill="#8DCD03"/>
</svg>
